<svg width="40" height="40" viewBox="0 0 40 40" fill="none" xmlns="http://www.w3.org/2000/svg">
<path d="M0 20C0 8.95431 8.95431 0 20 0C31.0457 0 40 8.95431 40 20C40 31.0457 31.0457 40 20 40C8.95431 40 0 31.0457 0 20Z" fill="#F3F4F6"/>
<path d="M20 12.5V22.5" stroke="#6B7280" stroke-width="2" stroke-linecap="round" stroke-linejoin="round"/>
<path d="M24.1668 16.6667L20.0002 12.5L15.8335 16.6667" stroke="#6B7280" stroke-width="2" stroke-linecap="round" stroke-linejoin="round"/>
<path d="M27.5 22.5V25.8333C27.5 26.2754 27.3244 26.6993 27.0118 27.0118C26.6993 27.3244 26.2754 27.5 25.8333 27.5H14.1667C13.7246 27.5 13.3007 27.3244 12.9882 27.0118C12.6756 26.6993 12.5 26.2754 12.5 25.8333V22.5" stroke="#6B7280" stroke-width="2" stroke-linecap="round" stroke-linejoin="round"/>
</svg>
