<svg width="20" height="20" viewBox="0 0 20 20" fill="none" xmlns="http://www.w3.org/2000/svg">
<path d="M12.4941 17.4932V10.8291C12.4941 10.6082 12.4064 10.3963 12.2502 10.2401C12.0939 10.0839 11.8821 9.99609 11.6611 9.99609H8.3291C8.10817 9.99609 7.8963 10.0839 7.74008 10.2401C7.58386 10.3963 7.49609 10.6082 7.49609 10.8291V17.4932" stroke="white" stroke-width="1.66602" stroke-linecap="round" stroke-linejoin="round"/>
<path d="M2.5 8.33048C2.49994 8.08813 2.55276 7.84869 2.65476 7.62885C2.75677 7.40901 2.90551 7.21408 3.0906 7.05764L8.92166 2.05959C9.22236 1.80545 9.60335 1.66602 9.99707 1.66602C10.3908 1.66602 10.7718 1.80545 11.0725 2.05959L16.9035 7.05764C17.0886 7.21408 17.2374 7.40901 17.3394 7.62885C17.4414 7.84869 17.4942 8.08813 17.4941 8.33048V15.8275C17.4941 16.2694 17.3186 16.6932 17.0062 17.0056C16.6937 17.318 16.27 17.4936 15.8281 17.4936H4.16602C3.72416 17.4936 3.3004 17.318 2.98796 17.0056C2.67553 16.6932 2.5 16.2694 2.5 15.8275V8.33048Z" stroke="white" stroke-width="1.66602" stroke-linecap="round" stroke-linejoin="round"/>
</svg>
