<svg width="20" height="20" viewBox="0 0 20 20" fill="none" xmlns="http://www.w3.org/2000/svg">
<g clip-path="url(#clip0_567_1240)">
<path d="M13.3281 16.6602V3.33203C13.3281 2.89018 13.1526 2.46642 12.8402 2.15398C12.5277 1.84154 12.104 1.66602 11.6621 1.66602H8.33008C7.88822 1.66602 7.46447 1.84154 7.15203 2.15398C6.83959 2.46642 6.66406 2.89018 6.66406 3.33203V16.6602" stroke="#2E2E2E" stroke-width="1.66602" stroke-linecap="round" stroke-linejoin="round"/>
<path d="M16.6602 4.99805H3.33203C2.41192 4.99805 1.66602 5.74395 1.66602 6.66406V14.9941C1.66602 15.9143 2.41192 16.6602 3.33203 16.6602H16.6602C17.5803 16.6602 18.3262 15.9143 18.3262 14.9941V6.66406C18.3262 5.74395 17.5803 4.99805 16.6602 4.99805Z" stroke="#2E2E2E" stroke-width="1.66602" stroke-linecap="round" stroke-linejoin="round"/>
</g>
<defs>
<clipPath id="clip0_567_1240">
<rect width="19.9922" height="19.9922" fill="white"/>
</clipPath>
</defs>
</svg>
