<svg width="20" height="20" viewBox="0 0 20 20" fill="none" xmlns="http://www.w3.org/2000/svg">
<g clip-path="url(#clip0_567_1253)">
<path d="M13.3281 17.4941V15.8281C13.3281 14.9444 12.9771 14.0969 12.3522 13.472C11.7273 12.8471 10.8798 12.4961 9.99609 12.4961H4.99805C4.11434 12.4961 3.26682 12.8471 2.64195 13.472C2.01707 14.0969 1.66602 14.9444 1.66602 15.8281V17.4941" stroke="#2E2E2E" stroke-width="1.66602" stroke-linecap="round" stroke-linejoin="round"/>
<path d="M13.3281 2.60547C14.0426 2.7907 14.6754 3.20795 15.1272 3.79172C15.5789 4.37549 15.824 5.09274 15.824 5.83087C15.824 6.56901 15.5789 7.28626 15.1272 7.87003C14.6754 8.4538 14.0426 8.87105 13.3281 9.05628" stroke="#2E2E2E" stroke-width="1.66602" stroke-linecap="round" stroke-linejoin="round"/>
<path d="M18.3271 17.4933V15.8273C18.3266 15.089 18.0809 14.3718 17.6286 13.7883C17.1762 13.2048 16.543 12.7881 15.8281 12.6035" stroke="#2E2E2E" stroke-width="1.66602" stroke-linecap="round" stroke-linejoin="round"/>
<path d="M7.49609 9.16406C9.33632 9.16406 10.8281 7.67226 10.8281 5.83203C10.8281 3.9918 9.33632 2.5 7.49609 2.5C5.65586 2.5 4.16406 3.9918 4.16406 5.83203C4.16406 7.67226 5.65586 9.16406 7.49609 9.16406Z" stroke="#2E2E2E" stroke-width="1.66602" stroke-linecap="round" stroke-linejoin="round"/>
</g>
<defs>
<clipPath id="clip0_567_1253">
<rect width="19.9922" height="19.9922" fill="white"/>
</clipPath>
</defs>
</svg>
