<svg width="20" height="20" viewBox="0 0 20 20" fill="none" xmlns="http://www.w3.org/2000/svg">
<g clip-path="url(#clip0_567_1232)">
<path d="M9.16406 18.1015C9.41733 18.2477 9.70462 18.3247 9.99707 18.3247C10.2895 18.3247 10.5768 18.2477 10.8301 18.1015L16.6611 14.7695C16.9141 14.6234 17.1243 14.4133 17.2705 14.1604C17.4167 13.9075 17.4938 13.6205 17.4941 13.3284V6.66431C17.4938 6.37215 17.4167 6.08521 17.2705 5.83227C17.1243 5.57933 16.9141 5.36928 16.6611 5.2232L10.8301 1.89117C10.5768 1.74495 10.2895 1.66797 9.99707 1.66797C9.70462 1.66797 9.41733 1.74495 9.16406 1.89117L3.33301 5.2232C3.07999 5.36928 2.86984 5.57933 2.72363 5.83227C2.57742 6.08521 2.5003 6.37215 2.5 6.66431V13.3284C2.5003 13.6205 2.57742 13.9075 2.72363 14.1604C2.86984 14.4133 3.07999 14.6234 3.33301 14.7695L9.16406 18.1015Z" stroke="#2E2E2E" stroke-width="1.66602" stroke-linecap="round" stroke-linejoin="round"/>
<path d="M9.99609 18.3262V9.99609" stroke="#2E2E2E" stroke-width="1.66602" stroke-linecap="round" stroke-linejoin="round"/>
<path d="M2.74023 5.83203L9.99573 9.99707L17.2512 5.83203" stroke="#2E2E2E" stroke-width="1.66602" stroke-linecap="round" stroke-linejoin="round"/>
<path d="M6.24805 3.55664L13.7451 7.84663" stroke="#2E2E2E" stroke-width="1.66602" stroke-linecap="round" stroke-linejoin="round"/>
</g>
<defs>
<clipPath id="clip0_567_1232">
<rect width="19.9922" height="19.9922" fill="white"/>
</clipPath>
</defs>
</svg>
