<svg width="20" height="20" viewBox="0 0 20 20" fill="none" xmlns="http://www.w3.org/2000/svg">
<g clip-path="url(#clip0_567_1275)">
<path d="M8.0558 3.44448C8.1017 2.96161 8.32597 2.51321 8.6848 2.18687C9.04364 1.86052 9.51125 1.67969 9.99629 1.67969C10.4813 1.67969 10.9489 1.86052 11.3078 2.18687C11.6666 2.51321 11.8909 2.96161 11.9368 3.44448C11.9644 3.7564 12.0667 4.05709 12.2351 4.32108C12.4035 4.58508 12.6331 4.80462 12.9043 4.96111C13.1755 5.11761 13.4805 5.20646 13.7933 5.22013C14.1061 5.23381 14.4177 5.17191 14.7015 5.03969C15.1423 4.83958 15.6417 4.81062 16.1027 4.95846C16.5636 5.10629 16.953 5.42033 17.1952 5.83946C17.4373 6.25859 17.5148 6.75283 17.4127 7.22597C17.3105 7.69912 17.036 8.11733 16.6424 8.39921C16.3862 8.57901 16.177 8.81788 16.0326 9.09562C15.8882 9.37336 15.8128 9.68179 15.8128 9.99483C15.8128 10.3079 15.8882 10.6163 16.0326 10.894C16.177 11.1718 16.3862 11.4107 16.6424 11.5905C17.036 11.8723 17.3105 12.2905 17.4127 12.7637C17.5148 13.2368 17.4373 13.7311 17.1952 14.1502C16.953 14.5693 16.5636 14.8834 16.1027 15.0312C15.6417 15.179 15.1423 15.1501 14.7015 14.95C14.4177 14.8178 14.1061 14.7559 13.7933 14.7695C13.4805 14.7832 13.1755 14.8721 12.9043 15.0285C12.6331 15.185 12.4035 15.4046 12.2351 15.6686C12.0667 15.9326 11.9644 16.2333 11.9368 16.5452C11.8909 17.0281 11.6666 17.4765 11.3078 17.8028C10.9489 18.1291 10.4813 18.31 9.99629 18.31C9.51125 18.31 9.04364 18.1291 8.6848 17.8028C8.32597 17.4765 8.1017 17.0281 8.0558 16.5452C8.02826 16.2332 7.92593 15.9324 7.75747 15.6683C7.58901 15.4042 7.35938 15.1846 7.08804 15.0281C6.81669 14.8715 6.51163 14.7827 6.19867 14.7691C5.88572 14.7555 5.5741 14.8176 5.29021 14.95C4.84946 15.1501 4.35002 15.179 3.88909 15.0312C3.42817 14.8834 3.03874 14.5693 2.79659 14.1502C2.55444 13.7311 2.47691 13.2368 2.57907 12.7637C2.68124 12.2905 2.95579 11.8723 3.3493 11.5905C3.60555 11.4107 3.81473 11.1718 3.95914 10.894C4.10355 10.6163 4.17894 10.3079 4.17894 9.99483C4.17894 9.68179 4.10355 9.37336 3.95914 9.09562C3.81473 8.81788 3.60555 8.57901 3.3493 8.39921C2.95634 8.11719 2.68227 7.69914 2.58036 7.22632C2.47844 6.75349 2.55595 6.25966 2.79784 5.8408C3.03973 5.42194 3.4287 5.10797 3.88917 4.95992C4.34964 4.81186 4.8487 4.84029 5.28938 5.03969C5.57323 5.17191 5.88477 5.23381 6.19761 5.22013C6.51045 5.20646 6.81539 5.11761 7.08662 4.96111C7.35786 4.80462 7.58739 4.58508 7.7558 4.32108C7.92422 4.05709 8.02655 3.7564 8.05413 3.44448" stroke="#2E2E2E" stroke-width="1.66602" stroke-linecap="round" stroke-linejoin="round"/>
<path d="M9.99512 12.4941C11.3753 12.4941 12.4941 11.3753 12.4941 9.99512C12.4941 8.61494 11.3753 7.49609 9.99512 7.49609C8.61494 7.49609 7.49609 8.61494 7.49609 9.99512C7.49609 11.3753 8.61494 12.4941 9.99512 12.4941Z" stroke="#2E2E2E" stroke-width="1.66602" stroke-linecap="round" stroke-linejoin="round"/>
</g>
<defs>
<clipPath id="clip0_567_1275">
<rect width="19.9922" height="19.9922" fill="white"/>
</clipPath>
</defs>
</svg>
